<svg width="32" height="32" viewBox="0 0 32 32" fill="none" xmlns="http://www.w3.org/2000/svg">
<rect width="32" height="32" rx="5" fill="#DD783F"/>
<path d="M9.39062 19.0801V20H4.87305V19.0801H9.39062ZM5.10156 11.4688V20H3.9707V11.4688H5.10156ZM8.79297 15.1367V16.0566H4.87305V15.1367H8.79297ZM9.33203 11.4688V12.3945H4.87305V11.4688H9.33203ZM14.3184 18.3184C14.3184 18.1621 14.2832 18.0176 14.2129 17.8848C14.1465 17.748 14.0078 17.625 13.7969 17.5156C13.5898 17.4023 13.2773 17.3047 12.8594 17.2227C12.5078 17.1484 12.1895 17.0605 11.9043 16.959C11.623 16.8574 11.3828 16.7344 11.1836 16.5898C10.9883 16.4453 10.8379 16.2754 10.7324 16.0801C10.627 15.8848 10.5742 15.6562 10.5742 15.3945C10.5742 15.1445 10.6289 14.9082 10.7383 14.6855C10.8516 14.4629 11.0098 14.2656 11.2129 14.0938C11.4199 13.9219 11.668 13.7871 11.957 13.6895C12.2461 13.5918 12.5684 13.543 12.9238 13.543C13.4316 13.543 13.8652 13.6328 14.2246 13.8125C14.584 13.9922 14.8594 14.2324 15.0508 14.5332C15.2422 14.8301 15.3379 15.1602 15.3379 15.5234H14.2539C14.2539 15.3477 14.2012 15.1777 14.0957 15.0137C13.9941 14.8457 13.8438 14.707 13.6445 14.5977C13.4492 14.4883 13.209 14.4336 12.9238 14.4336C12.623 14.4336 12.3789 14.4805 12.1914 14.5742C12.0078 14.6641 11.873 14.7793 11.7871 14.9199C11.7051 15.0605 11.6641 15.209 11.6641 15.3652C11.6641 15.4824 11.6836 15.5879 11.7227 15.6816C11.7656 15.7715 11.8398 15.8555 11.9453 15.9336C12.0508 16.0078 12.1992 16.0781 12.3906 16.1445C12.582 16.2109 12.8262 16.2773 13.123 16.3438C13.6426 16.4609 14.0703 16.6016 14.4062 16.7656C14.7422 16.9297 14.9922 17.1309 15.1562 17.3691C15.3203 17.6074 15.4023 17.8965 15.4023 18.2363C15.4023 18.5137 15.3438 18.7676 15.2266 18.998C15.1133 19.2285 14.9473 19.4277 14.7285 19.5957C14.5137 19.7598 14.2559 19.8887 13.9551 19.9824C13.6582 20.0723 13.3242 20.1172 12.9531 20.1172C12.3945 20.1172 11.9219 20.0176 11.5352 19.8184C11.1484 19.6191 10.8555 19.3613 10.6562 19.0449C10.457 18.7285 10.3574 18.3945 10.3574 18.043H11.4473C11.4629 18.3398 11.5488 18.5762 11.7051 18.752C11.8613 18.9238 12.0527 19.0469 12.2793 19.1211C12.5059 19.1914 12.7305 19.2266 12.9531 19.2266C13.25 19.2266 13.498 19.1875 13.6973 19.1094C13.9004 19.0312 14.0547 18.9238 14.1602 18.7871C14.2656 18.6504 14.3184 18.4941 14.3184 18.3184ZM19.3633 19.2266C19.6211 19.2266 19.8594 19.1738 20.0781 19.0684C20.2969 18.9629 20.4766 18.8184 20.6172 18.6348C20.7578 18.4473 20.8379 18.2344 20.8574 17.9961H21.8887C21.8691 18.3711 21.7422 18.7207 21.5078 19.0449C21.2773 19.3652 20.9746 19.625 20.5996 19.8242C20.2246 20.0195 19.8125 20.1172 19.3633 20.1172C18.8867 20.1172 18.4707 20.0332 18.1152 19.8652C17.7637 19.6973 17.4707 19.4668 17.2363 19.1738C17.0059 18.8809 16.832 18.5449 16.7148 18.166C16.6016 17.7832 16.5449 17.3789 16.5449 16.9531V16.707C16.5449 16.2812 16.6016 15.8789 16.7148 15.5C16.832 15.1172 17.0059 14.7793 17.2363 14.4863C17.4707 14.1934 17.7637 13.9629 18.1152 13.7949C18.4707 13.627 18.8867 13.543 19.3633 13.543C19.8594 13.543 20.293 13.6445 20.6641 13.8477C21.0352 14.0469 21.3262 14.3203 21.5371 14.668C21.752 15.0117 21.8691 15.4023 21.8887 15.8398H20.8574C20.8379 15.5781 20.7637 15.3418 20.6348 15.1309C20.5098 14.9199 20.3379 14.752 20.1191 14.627C19.9043 14.498 19.6523 14.4336 19.3633 14.4336C19.0312 14.4336 18.752 14.5 18.5254 14.6328C18.3027 14.7617 18.125 14.9375 17.9922 15.1602C17.8633 15.3789 17.7695 15.623 17.7109 15.8926C17.6562 16.1582 17.6289 16.4297 17.6289 16.707V16.9531C17.6289 17.2305 17.6562 17.5039 17.7109 17.7734C17.7656 18.043 17.8574 18.2871 17.9863 18.5059C18.1191 18.7246 18.2969 18.9004 18.5195 19.0332C18.7461 19.1621 19.0273 19.2266 19.3633 19.2266ZM24.1914 14.8789V22.4375H23.1016V13.6602H24.0977L24.1914 14.8789ZM28.4629 16.7773V16.9004C28.4629 17.3613 28.4082 17.7891 28.2988 18.1836C28.1895 18.5742 28.0293 18.9141 27.8184 19.2031C27.6113 19.4922 27.3555 19.7168 27.0508 19.877C26.7461 20.0371 26.3965 20.1172 26.002 20.1172C25.5996 20.1172 25.2441 20.0508 24.9355 19.918C24.627 19.7852 24.3652 19.5918 24.1504 19.3379C23.9355 19.084 23.7637 18.7793 23.6348 18.4238C23.5098 18.0684 23.4238 17.668 23.377 17.2227V16.5664C23.4238 16.0977 23.5117 15.6777 23.6406 15.3066C23.7695 14.9355 23.9395 14.6191 24.1504 14.3574C24.3652 14.0918 24.625 13.8906 24.9297 13.7539C25.2344 13.6133 25.5859 13.543 25.9844 13.543C26.3828 13.543 26.7363 13.6211 27.0449 13.7773C27.3535 13.9297 27.6133 14.1484 27.8242 14.4336C28.0352 14.7188 28.1934 15.0605 28.2988 15.459C28.4082 15.8535 28.4629 16.293 28.4629 16.7773ZM27.373 16.9004V16.7773C27.373 16.4609 27.3398 16.1641 27.2734 15.8867C27.207 15.6055 27.1035 15.3594 26.9629 15.1484C26.8262 14.9336 26.6504 14.7656 26.4355 14.6445C26.2207 14.5195 25.9648 14.457 25.668 14.457C25.3945 14.457 25.1562 14.5039 24.9531 14.5977C24.7539 14.6914 24.584 14.8184 24.4434 14.9785C24.3027 15.1348 24.1875 15.3145 24.0977 15.5176C24.0117 15.7168 23.9473 15.9238 23.9043 16.1387V17.6562C23.9824 17.9297 24.0918 18.1875 24.2324 18.4297C24.373 18.668 24.5605 18.8613 24.7949 19.0098C25.0293 19.1543 25.3242 19.2266 25.6797 19.2266C25.9727 19.2266 26.2246 19.166 26.4355 19.0449C26.6504 18.9199 26.8262 18.75 26.9629 18.5352C27.1035 18.3203 27.207 18.0742 27.2734 17.7969C27.3398 17.5156 27.373 17.2168 27.373 16.9004Z" fill="black"/>
</svg>
